<svg xmlns="http://www.w3.org/2000/svg" viewBox="0 0 400 400">
  <!-- Background -->
  <rect width="400" height="400" fill="#f5f0f5"/>
  
  <!-- Diamond Pattern -->
  <g>
    <!-- Row 1 -->
    <path d="M50 50 L70 30 L90 50 L70 70 Z" stroke="#8c5c8c" stroke-width="2" fill="none"/>
    <path d="M130 50 L150 30 L170 50 L150 70 Z" stroke="#8c5c8c" stroke-width="2" fill="none"/>
    <path d="M210 50 L230 30 L250 50 L230 70 Z" stroke="#8c5c8c" stroke-width="2" fill="none"/>
    <path d="M290 50 L310 30 L330 50 L310 70 Z" stroke="#8c5c8c" stroke-width="2" fill="none"/>
    
    <!-- Row 2 -->
    <path d="M10 110 L30 90 L50 110 L30 130 Z" stroke="#8c5c8c" stroke-width="2" fill="none"/>
    <path d="M90 110 L110 90 L130 110 L110 130 Z" stroke="#8c5c8c" stroke-width="2" fill="none"/>
    <path d="M170 110 L190 90 L210 110 L190 130 Z" stroke="#8c5c8c" stroke-width="2" fill="none"/>
    <path d="M250 110 L270 90 L290 110 L270 130 Z" stroke="#8c5c8c" stroke-width="2" fill="none"/>
    <path d="M330 110 L350 90 L370 110 L350 130 Z" stroke="#8c5c8c" stroke-width="2" fill="none"/>
    
    <!-- Row 3 -->
    <path d="M50 170 L70 150 L90 170 L70 190 Z" stroke="#8c5c8c" stroke-width="2" fill="none"/>
    <path d="M130 170 L150 150 L170 170 L150 190 Z" stroke="#8c5c8c" stroke-width="2" fill="none"/>
    <path d="M210 170 L230 150 L250 170 L230 190 Z" stroke="#8c5c8c" stroke-width="2" fill="none"/>
    <path d="M290 170 L310 150 L330 170 L310 190 Z" stroke="#8c5c8c" stroke-width="2" fill="none"/>
    
    <!-- Row 4 -->
    <path d="M10 230 L30 210 L50 230 L30 250 Z" stroke="#8c5c8c" stroke-width="2" fill="none"/>
    <path d="M90 230 L110 210 L130 230 L110 250 Z" stroke="#8c5c8c" stroke-width="2" fill="none"/>
    <path d="M170 230 L190 210 L210 230 L190 250 Z" stroke="#8c5c8c" stroke-width="2" fill="none"/>
    <path d="M250 230 L270 210 L290 230 L270 250 Z" stroke="#8c5c8c" stroke-width="2" fill="none"/>
    <path d="M330 230 L350 210 L370 230 L350 250 Z" stroke="#8c5c8c" stroke-width="2" fill="none"/>
    
    <!-- Row 5 -->
    <path d="M50 290 L70 270 L90 290 L70 310 Z" stroke="#8c5c8c" stroke-width="2" fill="none"/>
    <path d="M130 290 L150 270 L170 290 L150 310 Z" stroke="#8c5c8c" stroke-width="2" fill="none"/>
    <path d="M210 290 L230 270 L250 290 L230 310 Z" stroke="#8c5c8c" stroke-width="2" fill="none"/>
    <path d="M290 290 L310 270 L330 290 L310 310 Z" stroke="#8c5c8c" stroke-width="2" fill="none"/>
    
    <!-- Row 6 -->
    <path d="M10 350 L30 330 L50 350 L30 370 Z" stroke="#8c5c8c" stroke-width="2" fill="none"/>
    <path d="M90 350 L110 330 L130 350 L110 370 Z" stroke="#8c5c8c" stroke-width="2" fill="none"/>
    <path d="M170 350 L190 330 L210 350 L190 370 Z" stroke="#8c5c8c" stroke-width="2" fill="none"/>
    <path d="M250 350 L270 330 L290 350 L270 370 Z" stroke="#8c5c8c" stroke-width="2" fill="none"/>
    <path d="M330 350 L350 330 L370 350 L350 370 Z" stroke="#8c5c8c" stroke-width="2" fill="none"/>
  </g>
</svg>