<?xml version="1.0" encoding="utf-8"?>
<!-- Generator: Adobe Illustrator 27.5.0, SVG Export Plug-In . SVG Version: 6.00 Build 0)  -->
<svg version="1.1" xmlns="http://www.w3.org/2000/svg" xmlns:xlink="http://www.w3.org/1999/xlink" x="0px" y="0px"
	 viewBox="0 0 2200 2200" style="enable-background:new 0 0 2200 2200;" xml:space="preserve">
<g id="background">
	<rect style="fill:#FFFFFF;" width="2200" height="2200"/>
</g>
<g id="Objects">
	<g>
		<path style="fill:#FFBC00;" d="M1630.405,1383.827c-340.315,87.588-421.916,177.769-498.901,559.878
			c-3.527,17.506-28.536,17.506-32.063,0c-76.985-382.108-158.586-472.289-498.901-559.878c-16.36-4.211-16.36-27.461,0-31.672
			c340.315-87.588,421.915-177.769,498.901-559.878c3.527-17.506,28.536-17.506,32.063,0
			c76.985,382.108,158.586,472.289,498.901,559.878C1646.766,1356.366,1646.766,1379.617,1630.405,1383.827z"/>
		<path style="fill:#FFBC00;" d="M785.898,773.185c-135.977,34.997-168.582,71.03-199.342,223.706
			c-1.409,6.995-11.402,6.995-12.811,0c-30.761-152.676-63.365-188.709-199.342-223.706c-6.537-1.682-6.537-10.972,0-12.655
			c135.977-34.997,168.582-71.03,199.342-223.706c1.409-6.995,11.402-6.995,12.811,0C617.317,689.5,649.921,725.533,785.898,760.53
			C792.435,762.213,792.435,771.503,785.898,773.185z"/>
		<path style="fill:#FFBC00;" d="M1225.179,352.034c-61.271,15.77-75.963,32.006-89.824,100.802c-0.635,3.152-5.138,3.152-5.773,0
			c-13.861-68.796-28.552-85.033-89.824-100.802c-2.946-0.758-2.946-4.944,0-5.702c61.271-15.77,75.963-32.006,89.824-100.802
			c0.635-3.152,5.138-3.152,5.773,0c13.861,68.796,28.552,85.033,89.824,100.802C1228.125,347.09,1228.125,351.276,1225.179,352.034
			z"/>
		<path style="fill:#FFBC00;" d="M1827.344,775.759c-87.523,22.526-108.509,45.719-128.308,143.99c-0.907,4.502-7.339,4.502-8.246,0
			c-19.799-98.271-40.785-121.464-128.308-143.99c-4.208-1.083-4.208-7.063,0-8.145c87.523-22.526,108.509-45.719,128.308-143.99
			c0.907-4.502,7.339-4.502,8.246,0c19.799,98.271,40.785,121.464,128.308,143.99
			C1831.552,768.697,1831.552,774.676,1827.344,775.759z"/>
	</g>
</g>
</svg>
